<svg xmlns="http://www.w3.org/2000/svg" viewBox="0 0 261.04 98"><defs><style>.cls-1{fill:#231f20;}.cls-2{fill:#ed1c24;stroke:#ed1c24;stroke-miterlimit:10;}.cls-3{fill:#fff;}</style></defs><g id="Layer_2" data-name="Layer 2"><g id="Layer_1-2" data-name="Layer 1"><polygon class="cls-1" points="260.91 10.07 260.91 9.86 260.79 9.93 260.79 9.71 260.66 9.79 260.66 9.57 260.53 9.65 260.53 9.43 260.4 9.5 260.4 9.29 260.27 9.36 260.27 9.14 260.14 9.22 260.14 9 260.01 9.07 260.01 8.86 259.89 8.93 259.89 8.71 259.76 8.79 259.76 8.57 259.63 8.65 259.63 8.43 259.5 8.5 259.5 8.29 259.37 8.36 259.37 8.14 259.24 8.22 259.24 8 259.11 8.07 259.11 7.86 258.99 7.93 258.99 7.71 258.86 7.79 258.86 7.57 258.73 7.65 258.73 7.43 258.6 7.5 258.6 7.29 258.47 7.36 258.47 7.14 258.34 7.22 258.34 7 258.21 7.07 258.21 6.86 258.09 6.93 258.09 6.71 257.96 6.79 257.96 6.57 257.83 6.65 257.83 6.43 257.7 6.5 257.7 6.29 257.57 6.36 257.57 6.14 257.44 6.22 257.44 6 257.31 6.07 257.31 5.86 257.19 5.93 257.19 5.71 257.06 5.79 257.06 5.57 256.93 5.65 256.93 5.43 256.8 5.5 256.8 5.29 256.67 5.36 256.67 5.14 256.54 5.22 256.54 5 256.41 5.07 256.41 4.86 256.29 4.93 256.29 4.71 256.16 4.79 256.16 4.57 256.03 4.65 256.03 4.43 255.9 4.5 255.9 4.29 255.77 4.36 255.77 4.14 255.64 4.22 255.64 4 255.51 4.07 255.51 3.86 255.39 3.93 255.39 3.71 255.26 3.79 255.26 3.57 255.13 3.65 255.13 3.43 255 3.5 255 3.29 254.87 3.36 254.87 3.14 254.74 3.22 254.74 3 254.61 3.07 254.61 2.86 254.49 2.93 254.49 2.71 254.36 2.79 254.36 2.57 254.23 2.65 254.23 2.43 254.1 2.5 254.1 2.29 253.97 2.36 253.97 2.14 253.84 2.22 253.84 2 253.71 2.07 253.71 1.86 253.59 1.93 253.59 1.71 253.46 1.79 253.46 1.57 253.33 1.65 253.33 1.43 253.2 1.5 253.2 1.29 253.07 1.36 253.07 1.14 252.94 1.22 252.94 1 252.81 1.07 252.81 0.86 252.69 0.93 252.69 0.71 252.56 0.79 252.56 0.57 252.43 0.65 252.43 0.43 252.3 0.5 252.3 0.29 252.17 0.36 252.17 0.14 252.04 0.22 252.04 0 229.59 12.97 167.06 12.97 145.58 12.97 109.5 12.97 109.5 16.82 105.59 12.97 82.66 12.97 66.55 12.97 15.09 12.97 0 28.13 0 58.76 0.13 58.89 0.13 58.9 0.26 59.03 0.26 59.05 0.39 59.17 0.39 59.19 0.51 59.32 0.51 59.33 0.64 59.46 0.64 59.48 0.77 59.6 0.77 59.62 0.9 59.74 0.9 59.76 1.03 59.89 1.03 59.9 1.16 60.03 1.16 60.05 1.29 60.17 1.29 60.19 1.41 60.32 1.41 60.33 1.54 60.46 1.54 60.48 1.67 60.6 1.67 60.62 1.8 60.74 1.8 60.76 1.93 60.89 1.93 60.9 2.06 61.03 2.06 61.05 2.19 61.17 2.19 61.19 2.31 61.32 2.31 61.33 2.44 61.46 2.44 61.48 2.57 61.6 2.57 61.62 2.7 61.74 2.7 61.76 2.83 61.89 2.83 61.9 2.96 62.03 2.96 62.05 3.09 62.17 3.09 62.19 3.21 62.32 3.21 62.33 3.34 62.46 3.34 62.48 3.47 62.6 3.47 62.62 3.6 62.74 3.6 62.76 3.73 62.89 3.73 62.9 3.86 63.03 3.86 63.05 3.99 63.17 3.99 63.19 4.11 63.32 4.11 63.33 4.24 63.46 4.24 63.48 4.37 63.6 4.37 63.62 4.5 63.74 4.5 63.76 4.63 63.89 4.63 63.9 4.76 64.03 4.76 64.05 4.89 64.17 4.89 64.19 5.01 64.32 5.01 64.33 5.14 64.46 5.14 64.47 5.27 64.6 5.27 64.62 5.4 64.74 5.4 64.76 5.53 64.89 5.53 64.9 5.66 65.03 5.66 65.05 5.79 65.17 5.79 65.19 5.91 65.32 5.91 65.33 6.04 65.46 6.04 65.47 6.17 65.6 6.17 65.62 6.3 65.74 6.3 65.76 6.43 65.89 6.43 65.9 6.56 66.03 6.56 66.05 6.69 66.17 6.69 66.19 6.81 66.32 6.81 66.33 6.94 66.46 6.94 66.47 7.07 66.6 7.07 66.62 7.2 66.74 7.2 66.76 7.33 66.89 7.33 66.9 7.46 67.03 7.46 67.05 7.59 67.17 7.59 67.19 7.71 67.32 7.71 67.33 7.84 67.46 7.84 67.47 7.97 67.6 7.97 67.62 8.1 67.74 8.1 67.76 8.23 67.89 8.23 67.9 8.36 68.03 8.36 68.05 8.49 68.17 8.49 68.19 8.61 68.32 8.61 68.33 8.74 68.46 8.74 68.47 8.87 68.6 8.87 68.62 9 68.74 9 68.76 24.15 83.68 61.23 83.68 61.35 83.56 92.69 83.74 92.69 74.21 92.7 74.22 92.7 74.29 92.83 74.36 92.83 74.43 92.96 74.5 92.96 74.57 93.09 74.65 93.09 74.72 93.22 74.79 93.22 74.86 93.34 74.93 93.34 75 93.47 75.08 93.47 75.14 93.6 75.22 93.6 75.29 93.73 75.36 93.73 75.43 93.86 75.5 93.86 75.57 93.99 75.65 93.99 75.72 94.11 75.79 94.11 75.86 94.24 75.93 94.24 76 94.37 76.08 94.37 76.14 94.5 76.22 94.5 76.29 94.63 76.36 94.63 76.43 94.76 76.5 94.76 76.57 94.89 76.65 94.89 76.72 95.02 76.79 95.02 76.86 95.14 76.93 95.14 77 95.27 77.08 95.27 77.14 95.4 77.22 95.4 77.29 95.53 77.36 95.53 77.43 95.66 77.5 95.66 77.57 95.79 77.65 95.79 77.72 95.92 77.79 95.92 77.86 96.04 77.93 96.04 78 96.17 78.08 96.17 78.14 96.3 78.22 96.3 78.29 96.43 78.36 96.43 78.43 96.56 78.5 96.56 78.57 96.69 78.65 96.69 78.72 96.81 78.79 96.81 78.86 96.94 78.93 96.94 79 97.07 79.08 97.07 79.14 97.2 79.22 97.2 79.29 97.33 79.36 97.33 79.43 97.46 79.5 97.46 79.57 129.74 97.89 129.74 83.68 150.78 83.68 150.78 71.45 150.9 71.52 150.9 71.59 151.03 71.66 151.03 71.73 151.15 71.81 151.15 71.88 151.28 71.95 151.28 72.02 151.41 72.09 151.41 72.16 151.54 72.23 151.54 72.3 151.67 72.38 151.67 72.45 151.8 72.52 151.8 72.59 151.93 72.66 151.93 72.73 152.05 72.81 152.05 72.88 152.18 72.95 152.18 73.02 152.31 73.09 152.31 73.16 152.44 73.23 152.44 73.3 152.57 73.38 152.57 73.45 152.7 73.52 152.7 73.59 152.83 73.66 152.83 73.73 152.95 73.81 152.95 73.88 153.08 73.95 153.08 74.02 153.21 74.09 153.21 74.16 153.34 74.23 153.34 74.3 153.47 74.38 153.47 74.45 153.6 74.52 153.6 74.59 153.73 74.66 153.73 74.73 153.85 74.81 153.85 74.88 153.98 74.95 153.98 75.02 154.11 75.09 154.11 75.16 154.24 75.23 154.24 75.3 154.37 75.38 154.37 75.45 154.5 75.52 154.5 75.59 154.63 75.66 154.63 75.73 154.75 75.81 154.75 75.88 154.88 75.95 154.88 76.02 155.01 76.09 155.01 76.16 155.14 76.23 155.14 76.3 155.27 76.38 155.27 76.45 155.4 76.52 155.4 76.59 155.53 76.66 155.53 76.73 155.65 76.81 155.65 76.88 155.78 76.95 155.78 77.02 155.91 77.09 155.91 77.16 156.04 77.23 156.04 77.3 156.17 77.38 156.17 77.45 156.3 77.52 156.3 77.59 156.43 77.66 156.43 77.73 156.55 77.81 156.55 77.88 156.68 77.95 156.68 78.02 156.81 78.09 156.81 78.16 156.94 78.23 156.94 78.3 157.07 78.38 157.07 78.45 157.2 78.52 157.2 78.59 157.33 78.66 157.33 78.73 157.45 78.81 157.45 78.88 157.58 78.95 157.58 79.02 157.71 79.09 157.71 79.16 157.84 79.23 157.84 79.3 157.97 79.38 157.97 79.45 190.25 98 190.25 79.79 221.99 97.98 221.99 77.38 222.08 77.38 222.08 77.52 222.21 77.52 222.21 77.66 222.33 77.66 222.33 77.81 222.46 77.81 222.46 77.95 222.59 77.95 222.59 78.09 222.72 78.09 222.72 78.23 222.85 78.23 222.85 78.38 222.98 78.38 222.98 78.52 223.1 78.52 223.1 78.66 223.23 78.66 223.23 78.81 223.36 78.81 223.36 78.95 223.49 78.95 223.49 79.09 223.62 79.09 223.62 79.23 223.75 79.23 223.75 79.38 223.88 79.38 223.88 79.52 224 79.52 224 79.66 224.13 79.66 224.13 79.81 224.26 79.81 224.26 79.95 224.39 79.95 224.39 80.09 224.52 80.09 224.52 80.23 224.65 80.23 224.65 80.38 224.78 80.38 224.78 80.52 224.91 80.52 224.91 80.66 225.03 80.66 225.03 80.81 225.16 80.81 225.16 80.95 225.29 80.95 225.29 81.09 225.42 81.09 225.42 81.23 225.55 81.23 225.55 81.38 225.68 81.38 225.68 81.52 225.81 81.52 225.81 81.66 225.93 81.66 225.93 81.81 226.06 81.81 226.06 81.95 226.19 81.95 226.19 82.09 226.32 82.09 226.32 82.23 226.45 82.23 226.45 82.38 226.58 82.38 226.58 82.52 226.71 82.52 226.71 82.66 226.83 82.66 226.83 82.81 226.96 82.81 226.96 82.95 227.09 82.95 227.09 83.09 227.22 83.09 227.22 83.23 227.35 83.23 227.35 83.38 227.48 83.38 227.48 83.52 227.6 83.52 227.6 83.66 227.73 83.66 227.73 83.81 227.86 83.81 227.86 83.95 227.99 83.95 227.99 84.09 228.12 84.09 228.12 84.23 228.25 84.23 228.25 84.38 228.38 84.38 228.38 84.52 228.5 84.52 228.5 84.66 228.63 84.66 228.63 84.81 228.76 84.81 228.76 84.95 261.04 85.13 261.04 10 260.91 10.07"/><polygon class="cls-2" points="52.61 35.08 61.65 25.97 22.25 25.97 13 35.26 13 57.57 22.25 66.68 51.09 66.68 60.2 57.57 25.28 57.57 25.28 35.08 52.61 35.08"/><path class="cls-2" d="M73.65,26,64.4,35.08V66.61l12.29.07V55h24.77V66.75l12.28,7V35.08L104.49,26Zm27.81,20.08H76.69v-11h24.77Z"/><path class="cls-2" d="M165,26H122.5V66.68h12.28V53.09h23.49l3.7,3.6v10l12.28,7.06V55l-7-7,7-9.45Zm-6.66,17.87H134.78V35.08h23.65l3.2,4.23Z"/><polygon class="cls-2" points="181.63 35.08 193.71 35.08 193.71 66.68 205.99 73.72 205.99 35.08 218.06 35.08 227.1 25.97 172.59 25.97 181.63 35.08"/><polygon class="cls-2" points="232.76 26.03 232.76 66.61 245.04 66.68 245.04 18.93 232.76 26.03"/><path class="cls-3" d="M19.25,64.18A.48.48,0,0,1,18.9,64L9.65,54.93a.48.48,0,0,1-.15-.36V32.26a.47.47,0,0,1,.15-.35l9.24-9.29a.53.53,0,0,1,.36-.15h39.4a.5.5,0,0,1,.46.31.51.51,0,0,1-.11.54l-9,9.11a.47.47,0,0,1-.35.15H22.78V54.07H57.2a.51.51,0,0,1,.46.31.51.51,0,0,1-.11.55L48.44,64a.5.5,0,0,1-.35.14Z"/><path class="cls-1" d="M58.65,23l-9,9.11H22.28V54.57H57.2l-9.11,9.11H19.25L10,54.57V32.26L19.25,23h39.4m0-1H19.25a1,1,0,0,0-.71.3L9.29,31.55a1,1,0,0,0-.29.71V54.57a1,1,0,0,0,.3.72l9.24,9.1a1,1,0,0,0,.71.29H48.09a1,1,0,0,0,.71-.29l9.1-9.11a1,1,0,0,0,.22-1.09,1,1,0,0,0-.92-.62H23.28V33.08H49.61a1,1,0,0,0,.71-.3l9-9.1a1,1,0,0,0-.7-1.71Z"/><path class="cls-3" d="M110.74,71.22a.54.54,0,0,1-.25-.06l-12.28-7a.5.5,0,0,1-.25-.44V52.52H74.19V63.68A.53.53,0,0,1,74,64a.5.5,0,0,1-.35.14L61.4,64.11a.5.5,0,0,1-.5-.5V32.08a.55.55,0,0,1,.15-.36l9.25-9.1a.47.47,0,0,1,.35-.15h30.84a.45.45,0,0,1,.35.15l9.25,9.1a.51.51,0,0,1,.15.36V70.72a.48.48,0,0,1-.25.43A.45.45,0,0,1,110.74,71.22ZM98,42.55v-10H74.19v10Z"/><path class="cls-1" d="M101.49,23l9.25,9.11V70.72l-12.28-7V52H73.69V63.68L61.4,63.61V32.08L70.65,23h30.84M73.69,43.05H98.46v-11H73.69v11M101.49,22H70.65a1,1,0,0,0-.7.29L60.7,31.37a1,1,0,0,0-.3.71V63.61a1,1,0,0,0,1,1l12.28.07h0a1,1,0,0,0,.7-.29,1,1,0,0,0,.3-.71V53H97.46V63.75a1,1,0,0,0,.5.87l12.29,7a1,1,0,0,0,.49.13.9.9,0,0,0,.5-.14,1,1,0,0,0,.5-.86V32.08a1,1,0,0,0-.3-.71l-9.24-9.11a1,1,0,0,0-.71-.29ZM74.69,33.08H97.46v9H74.69v-9Z"/><path class="cls-3" d="M171.25,71.22a.45.45,0,0,1-.25-.07l-12.28-7.06a.47.47,0,0,1-.25-.43V53.9l-3.41-3.31H132.28V63.68a.5.5,0,0,1-.5.5H119.5a.5.5,0,0,1-.5-.5V23a.51.51,0,0,1,.5-.5H162a.52.52,0,0,1,.41.21l9.24,12.55a.51.51,0,0,1,0,.6l-6.78,9.11,6.73,6.73a.47.47,0,0,1,.15.35v18.7a.48.48,0,0,1-.25.43A.45.45,0,0,1,171.25,71.22ZM155.08,40.34l2.93-4-2.83-3.73h-22.9v7.76Z"/><path class="cls-1" d="M162,23l9.25,12.56-7,9.45,7,7v18.7L159,63.66v-10l-3.7-3.6H131.78V63.68H119.5V23H162M131.78,40.84h23.56l3.29-4.53-3.2-4.23H131.78v8.76M162,22H119.5a1,1,0,0,0-1,1V63.68a1,1,0,0,0,1,1h12.28a1,1,0,0,0,1-1V51.09h22.08l3.11,3v9.54a1,1,0,0,0,.5.87l12.28,7.06a1,1,0,0,0,.5.13,1,1,0,0,0,.5-.13,1,1,0,0,0,.5-.87V52a1,1,0,0,0-.29-.71l-6.43-6.42,6.52-8.76a1,1,0,0,0,0-1.19l-9.25-12.56A1,1,0,0,0,162,22ZM132.78,33.08h22.15l2.45,3.24-2.55,3.52H132.78V33.08Z"/><path class="cls-3" d="M203,71.22a.45.45,0,0,1-.25-.07l-12.28-7a.5.5,0,0,1-.25-.44V32.58H178.63a.47.47,0,0,1-.35-.15l-9-9.11a.51.51,0,0,1-.11-.54.5.5,0,0,1,.46-.31H224.1a.5.5,0,0,1,.47.31.51.51,0,0,1-.11.54l-9,9.11a.47.47,0,0,1-.35.15H203.49V70.72a.48.48,0,0,1-.25.43A.45.45,0,0,1,203,71.22Z"/><path class="cls-1" d="M224.1,23l-9,9.11H203V70.72l-12.28-7V32.08H178.63l-9-9.11H224.1m0-1H169.59a1,1,0,0,0-.71,1.71l9,9.1a1,1,0,0,0,.71.3h11.08v30.6a1,1,0,0,0,.5.87l12.28,7a1,1,0,0,0,.5.13,1,1,0,0,0,.5-.13,1,1,0,0,0,.5-.87V33.08h11.08a1,1,0,0,0,.71-.3l9-9.1a1,1,0,0,0,.22-1.09,1,1,0,0,0-.93-.62Z"/><path class="cls-3" d="M229.76,64.11a.5.5,0,0,1-.5-.5V23a.5.5,0,0,1,.25-.43l12.28-7.1a.59.59,0,0,1,.25-.07.52.52,0,0,1,.25.07.5.5,0,0,1,.25.43V63.68a.52.52,0,0,1-.14.36.54.54,0,0,1-.36.14Z"/><path class="cls-1" d="M242,15.93V63.68l-12.28-.07V23L242,15.93m0-1a1,1,0,0,0-.5.14l-12.28,7.09a1,1,0,0,0-.5.87V63.61a1,1,0,0,0,1,1l12.28.07h0a1,1,0,0,0,1-1V15.93a1,1,0,0,0-.5-.86,1,1,0,0,0-.5-.14Z"/></g></g></svg>